<svg viewBox="0 0 900 300" fill="none" xmlns="http://www.w3.org/2000/svg">
  <!-- Printer/Mailbox Body - 3D effect -->
  <defs>
    <linearGradient id="mailboxGradient" x1="0%" y1="0%" x2="0%" y2="100%">
      <stop offset="0%" style="stop-color:#0066FF;stop-opacity:1" />
      <stop offset="100%" style="stop-color:#003D99;stop-opacity:1" />
    </linearGradient>
    <linearGradient id="paperGradient" x1="0%" y1="0%" x2="100%" y2="0%">
      <stop offset="0%" style="stop-color:#E8F4FF;stop-opacity:1" />
      <stop offset="100%" style="stop-color:#FFFFFF;stop-opacity:1" />
    </linearGradient>
  </defs>

  <!-- Main mailbox body -->
  <ellipse cx="140" cy="220" rx="110" ry="70" fill="#003D99"/>
  <path d="M 30 180 Q 30 100 90 80 L 190 80 Q 250 100 250 180 L 250 220 Q 250 280 190 290 L 90 290 Q 30 280 30 220 Z" fill="url(#mailboxGradient)"/>
  
  <!-- Mailbox door/front panel -->
  <path d="M 50 140 Q 50 100 80 90 L 200 90 Q 230 100 230 140 L 230 260 Q 230 280 200 285 L 80 285 Q 50 280 50 260 Z" fill="#0066FF"/>
  <path d="M 55 145 Q 55 105 83 95 L 197 95 Q 225 105 225 145 L 225 255 Q 225 275 197 280 L 83 280 Q 55 275 55 255 Z" fill="#0088FF"/>
  
  <!-- Shine effect on door -->
  <ellipse cx="100" cy="140" rx="35" ry="60" fill="white" opacity="0.25"/>
  
  <!-- Paper coming out - multiple sheets for depth -->
  <g id="paper">
    <!-- Back sheet -->
    <rect x="95" y="20" width="80" height="85" rx="4" fill="#E0E0E0" opacity="0.6"/>
    <!-- Middle sheet -->
    <rect x="92" y="15" width="80" height="85" rx="4" fill="#F0F0F0" opacity="0.8"/>
    <!-- Front sheet -->
    <rect x="88" y="10" width="80" height="85" rx="4" fill="url(#paperGradient)" stroke="#CCCCCC" stroke-width="2"/>
    
    <!-- Paper lines -->
    <line x1="100" y1="30" x2="160" y2="30" stroke="#CCCCCC" stroke-width="2"/>
    <line x1="100" y1="45" x2="160" y2="45" stroke="#CCCCCC" stroke-width="2"/>
    <line x1="100" y1="60" x2="160" y2="60" stroke="#CCCCCC" stroke-width="2"/>
    <line x1="100" y1="75" x2="160" y2="75" stroke="#CCCCCC" stroke-width="2"/>
  </g>
  
  <!-- Happy face on mailbox -->
  <!-- Left eye -->
  <circle cx="105" cy="190" r="18" fill="white"/>
  <circle cx="105" cy="190" r="12" fill="#001a4d"/>
  <circle cx="108" cy="187" r="5" fill="white"/>
  
  <!-- Right eye -->
  <circle cx="175" cy="190" r="18" fill="white"/>
  <circle cx="175" cy="190" r="12" fill="#001a4d"/>
  <circle cx="178" cy="187" r="5" fill="white"/>
  
  <!-- Left cheek -->
  <circle cx="75" cy="220" r="15" fill="#FF6B6B" opacity="0.7"/>
  
  <!-- Right cheek -->
  <circle cx="205" cy="220" r="15" fill="#FF6B6B" opacity="0.7"/>
  
  <!-- Smile -->
  <path d="M 110 240 Q 140 265 170 240" stroke="white" stroke-width="12" fill="none" stroke-linecap="round"/>
  
  <!-- Pixel dots effect -->
  <g id="pixels" fill="#00CCFF" opacity="0.9">
    <rect x="260" y="70" width="25" height="25" rx="3"/>
    <rect x="300" y="50" width="25" height="25" rx="3"/>
    <rect x="270" y="130" width="25" height="25" rx="3"/>
    <rect x="310" y="110" width="25" height="25" rx="3"/>
    <rect x="285" y="85" width="18" height="18" rx="2"/>
  </g>
  
  <!-- Text: Printosk -->
  <text x="380" y="220" font-family="Arial, Helvetica, sans-serif" font-size="140" font-weight="900" fill="#001a4d" letter-spacing="-3">Printosk</text>
  
  <!-- Blue circle accent in the 'o' -->
  <circle cx="760" cy="170" r="55" fill="none" stroke="#00AAFF" stroke-width="14" opacity="0.95"/>
</svg>
