<svg viewBox="0 0 250 80" fill="none" xmlns="http://www.w3.org/2000/svg">
  <!-- Mail/Cloud Icon -->
  <g id="icon">
    <!-- Cloud shape base -->
    <path d="M 15 45 Q 15 35 22 30 Q 28 20 38 20 Q 45 15 52 18 Q 60 10 70 15 Q 78 12 82 22 Q 90 20 94 30 Q 100 28 104 35 Q 110 33 115 42 L 115 60 Q 115 68 108 72 L 25 72 Q 15 68 15 60 Z" fill="#0052CC"/>
    
    <!-- Mailbox door highlight -->
    <path d="M 28 40 Q 28 35 33 33 Q 38 32 43 33 Q 48 35 48 42 L 48 58 Q 48 62 43 63 L 33 63 Q 28 62 28 58 Z" fill="#0066FF" opacity="0.7"/>
    
    <!-- Shine/reflection -->
    <ellipse cx="38" cy="45" rx="8" ry="12" fill="white" opacity="0.3"/>
    
    <!-- Flag indicator -->
    <rect x="95" y="38" width="4" height="8" fill="#003D99"/>
    <rect x="99" y="36" width="12" height="10" fill="#FF6B6B" rx="1"/>
    
    <!-- Eyes -->
    <circle cx="35" cy="48" r="2.5" fill="white"/>
    <circle cx="45" cy="48" r="2.5" fill="white"/>
    
    <!-- Smile curve -->
    <path d="M 37 52 Q 40 53.5 43 52" stroke="white" strokeWidth="1.5" fill="none" strokeLinecap="round"/>
  </g>
  
  <!-- Text: Printosk -->
  <text x="130" y="56" font-family="'Segoe UI', Arial, sans-serif" font-size="42" font-weight="700" fill="#001a4d" letter-spacing="-0.5">
    Printosk
  </text>
</svg>
